<svg width="512" height="512" viewBox="0 0 512 512" fill="none" xmlns="http://www.w3.org/2000/svg">
  <defs>
    <linearGradient id="coverFront" x1="176" y1="116" x2="366" y2="388" gradientUnits="userSpaceOnUse">
      <stop offset="0" stop-color="#2F4B7C"/>
      <stop offset="0.5" stop-color="#1E3558"/>
      <stop offset="1" stop-color="#12233D"/>
    </linearGradient>
    <linearGradient id="spine" x1="132" y1="130" x2="176" y2="392" gradientUnits="userSpaceOnUse">
      <stop offset="0" stop-color="#1E3558"/>
      <stop offset="1" stop-color="#0D1A2D"/>
    </linearGradient>
    <linearGradient id="pagesSide" x1="366" y1="126" x2="396" y2="388" gradientUnits="userSpaceOnUse">
      <stop offset="0" stop-color="#FFFDF8"/>
      <stop offset="1" stop-color="#DDD6C4"/>
    </linearGradient>
    <linearGradient id="pagesBottom" x1="176" y1="388" x2="366" y2="408" gradientUnits="userSpaceOnUse">
      <stop offset="0" stop-color="#F5F1E4"/>
      <stop offset="1" stop-color="#D8CFBA"/>
    </linearGradient>
    <linearGradient id="bookmark" x1="322" y1="116" x2="348" y2="178" gradientUnits="userSpaceOnUse">
      <stop offset="0" stop-color="#D8B25A"/>
      <stop offset="1" stop-color="#A87C1E"/>
    </linearGradient>
    <filter id="shadow" x="100" y="90" width="330" height="350" filterUnits="userSpaceOnUse">
      <feDropShadow dx="0" dy="12" stdDeviation="10" flood-color="#0B1322" flood-opacity="0.18"/>
    </filter>
  </defs>
  <ellipse cx="259" cy="408" rx="124" ry="20" fill="#17263E" opacity="0.10"/>
  <g filter="url(#shadow)">
    <path d="M176 388H366L384 404H194L176 388Z" fill="url(#pagesBottom)"/>
    <path d="M366 126L384 140V404L366 388V126Z" fill="url(#pagesSide)"/>
    <path d="M371 134L379 140V397L371 391V134Z" stroke="#D6CFBE" stroke-width="1.6"/>
    <path d="M376 138L382 143V401L376 396V138Z" stroke="#ECE6D8" stroke-width="1.6"/>
    <path d="M132 144C132 132 140 124 152 124H176V388H152C140 388 132 380 132 368V144Z" fill="url(#spine)"/>
    <path d="M176 116H350C361 116 370 125 370 136V368C370 379 361 388 350 388H176V116Z" fill="url(#coverFront)"/>
    <path d="M186 128H344C353 128 360 135 360 144V360C360 369 353 376 344 376H186" stroke="#91A7CC" stroke-width="3" opacity="0.45"/>
    <path d="M164 124V388" stroke="#0B1730" stroke-width="3" opacity="0.35"/>
    <path d="M150 154C150 145 156 138 165 138" stroke="#47648F" stroke-width="3" opacity="0.45"/>
    <rect x="210" y="176" width="114" height="96" rx="12" fill="#4D6795" opacity="0.22" stroke="#A8B8D3" stroke-opacity="0.30"/>
    <text x="267" y="244" text-anchor="middle" font-family="Arial, Helvetica, sans-serif" font-size="78" font-weight="700" fill="#FFF9EC">#!</text>
    <line x1="214" y1="304" x2="322" y2="304" stroke="#D7E1F1" stroke-width="5" stroke-linecap="round" opacity="0.72"/>
    <line x1="214" y1="324" x2="296" y2="324" stroke="#D7E1F1" stroke-width="5" stroke-linecap="round" opacity="0.55"/>
    <path d="M322 116H348V176L335 166L322 176V116Z" fill="url(#bookmark)"/>
    <path d="M196 142C224 134 268 132 320 136" stroke="#B9C7DE" stroke-width="4" stroke-linecap="round" opacity="0.35"/>
  </g>
</svg>